# xmcd
#
# Track frame offsets: 
#        150
#        20758
#        41649
#        60805
#        76194
#        96638
#        116365
#        135728
#        154596
#        169955
#        186959
#        211051
#        227246
#
# Disc length: 3331 seconds
#
# Revision: 0
# Processed by: cddbd v1.4PL0 Copyright (c) Steve Scherf et al.
# Submitted via: ExactAudioCopy v0.90b4
#
DISCID=a80d010d
DTITLE=Thanh Thao - Chang and Nang
DYEAR=2003
DGENRE=World
TTITLE0=Chang va Nang
TTITLE1=Loi Me Ru
TTITLE2=Tieng Set
TTITLE3=Dieu Nhac Xuan
TTITLE4=18 Vao Doi
TTITLE5=Dung Hoi Vi Sao
TTITLE6=Goi Doi Mat Nai
TTITLE7=Den Voi Tinh Yeu
TTITLE8=Quen Di Cuoc Tinh
TTITLE9=Trai Tim Dau
TTITLE10=Va Cung Nhu Yeu
TTITLE11=Dem la Mua Dong
TTITLE12=Bai hat Cho Em
EXTD=
EXTT0=
EXTT1=
EXTT2=
EXTT3=
EXTT4=
EXTT5=
EXTT6=
EXTT7=
EXTT8=
EXTT9=
EXTT10=
EXTT11=
EXTT12=
PLAYORDER=
